<?xml version="1.0" standalone="no"?><!DOCTYPE svg PUBLIC "-//W3C//DTD SVG 1.1//EN" "http://www.w3.org/Graphics/SVG/1.1/DTD/svg11.dtd"><svg t="1611279572227" class="icon" viewBox="0 0 1024 1024" version="1.1" xmlns="http://www.w3.org/2000/svg" p-id="3612" xmlns:xlink="http://www.w3.org/1999/xlink" width="200" height="200"><defs><style type="text/css"></style></defs><path d="M272 512h320v290H272V512z" fill="#DFEAFF" p-id="3613"></path><path d="M700.134 831.99H323.882c-23.5-0.014-45.572-9.17-62.168-25.786s-25.728-38.698-25.714-62.18V280.44c-0.026-48.458 39.39-87.922 87.864-87.952H617.8c16.568 0 30 13.432 30 30s-13.432 30-30 30H323.882c-15.376 0.01-27.892 12.542-27.882 27.934V744.04c-0.004 7.474 2.896 14.486 8.166 19.762s12.278 8.184 19.734 8.188h376.22c15.374-0.008 27.888-12.538 27.88-27.926-0.004-2.542-0.38-258.422-0.38-373.016 0-16.568 13.432-30 30-30s30 13.432 30 30c0 114.548 0.376 370.384 0.38 372.956 0.022 48.502-39.394 87.958-87.866 87.986z" fill="#1E47D0" p-id="3614"></path><path d="M457.312 424.578h-94.228c-16.568 0-30-13.432-30-30s13.432-30 30-30h94.228c16.568 0 30 13.432 30 30s-13.432 30-30 30zM659.52 518.712H363.35c-16.568 0-30-13.432-30-30s13.432-30 30-30H659.52c16.568 0 30 13.432 30 30s-13.43 30-30 30zM488.7 691.29h-125.638c-16.568 0-30-13.432-30-30s13.432-30 30-30h125.638c16.568 0 30 13.432 30 30s-13.43 30-30 30zM566.426 440.456a29.892 29.892 0 0 1-21.212-8.788c-11.716-11.716-11.716-30.71 0-42.426l188.458-188.458c11.714-11.716 30.71-11.716 42.426 0 11.716 11.716 11.716 30.71 0 42.426l-188.458 188.458a29.904 29.904 0 0 1-21.214 8.788z" fill="#1E47D0" p-id="3615"></path></svg>